<svg xmlns="http://www.w3.org/2000/svg" width="36" height="36" viewBox="0 0 36 36"><g transform="translate(2 -1018.362)"><path fill="#df1e49" d="M2.54981 1033.3113l5.8737 0 0 7.3714-5.8737 0 2.10653-3.6859zM29.45019 1033.3113l-5.87373 0 0 7.3714 5.87373 0-2.10656-3.6859z"/><path fill="#ff1e55" d="m 6.86881,1032.0417 0,7.3726 3.99999,0 10.26237,0 3.99999,0 0,-7.3726 -3.99999,0 -10.26237,0 z"/><path fill="#fff" d="m 11.722656,13.464844 c -0.573281,0 -0.886719,0.341047 -0.886718,0.935547 l 0,1.93164 c 0,0.5946 0.313437,0.933594 0.886718,0.933594 0.573282,0 0.886719,-0.338994 0.886719,-0.933594 l 0,-1.93164 c 0,-0.5945 -0.313437,-0.935547 -0.886719,-0.935547 z m 1.265625,0.04297 0,3.714844 0.583985,0 0,-1.533203 0.753906,0 0,-0.53125 -0.753906,0 0,-1.119141 0.960937,0 0,-0.53125 -1.544922,0 z m 1.826172,0 0,3.714844 0.583985,0 0,-1.533203 0.753906,0 0,-0.53125 -0.753906,0 0,-1.119141 0.960937,0 0,-0.53125 -1.544922,0 z m 1.824219,0 0,3.714844 1.591797,0 0,-0.529297 -1.007813,0 0,-1.08789 0.800782,0 0,-0.53125 -0.800782,0 0,-1.035157 1.007813,0 0,-0.53125 -1.591797,0 z m 1.949219,0 0,3.714844 0.583984,0 0,-1.511718 0.201172,0 c 0.265408,0 0.382812,0.127656 0.382812,0.472656 l 0,0.583984 c 0,0.3026 0.02088,0.359578 0.05273,0.455078 l 0.59375,0 c -0.05839,-0.138 -0.0625,-0.270672 -0.0625,-0.451172 l 0,-0.572265 c 0,-0.3875 -0.09673,-0.668916 -0.388672,-0.791016 0.2601,-0.1221 0.382812,-0.371706 0.382812,-0.753906 l 0,-0.291016 c 0,-0.5733 -0.260104,-0.855469 -0.865234,-0.855469 l -0.880859,0 z m -6.865235,0.488282 c 0.185786,0 0.302735,0.101787 0.302735,0.367187 l 0,2.00586 c 0,0.2654 -0.116949,0.365234 -0.302735,0.365234 -0.185786,0 -0.302734,-0.09983 -0.302734,-0.365234 l 0,-2.00586 c 0,-0.2654 0.116948,-0.367187 0.302734,-0.367187 z m 7.449219,0.04297 0.28125,0 c 0.207019,0 0.296875,0.117413 0.296875,0.382813 l 0,0.365234 c 0,0.2972 -0.131975,0.392579 -0.349609,0.392579 l -0.228516,0 0,-1.140626 z" font-family="Bebas Neue" font-weight="700" letter-spacing="0" transform="translate(0 1020.362)" word-spacing="0" style="line-height:125%;-inkscape-font-specification:'Bebas Neue Bold'"/><path fill="#e9eded" style="line-height:normal;text-indent:0;text-align:start;text-decoration-line:none;text-decoration-style:solid;text-decoration-color:#000;text-transform:none;block-progression:tb;isolation:auto;mix-blend-mode:normal" d="m 6.8691406,14.679688 a 1.0001,1.0001 0 0 0 -1,1 l 0,0.269531 -3.3183594,0 a 1.0001,1.0001 0 0 0 -0.8691406,1.496093 l 1.8222656,3.189454 -1.8222656,3.189453 a 1.0001,1.0001 0 0 0 0.8691406,1.496093 l 5.8730469,0 a 1.0001,1.0001 0 0 0 1,-1 l 0,-0.267578 1.4453129,0 10.261718,0 1.445313,0 0,0.267578 a 1.0001,1.0001 0 0 0 1,1 l 5.873047,0 a 1.0001,1.0001 0 0 0 0.86914,-1.496093 l -1.822265,-3.189453 1.822265,-3.189454 a 1.0001,1.0001 0 0 0 -0.86914,-1.496093 l -3.31836,0 0,-0.269531 a 1.0001,1.0001 0 0 0 -1,-1 l -4,0 -10.261718,0 -4.0000004,0 z m 0,1 4.0000004,0 10.261718,0 4,0 0,1.269531 4.31836,0 -2.105469,3.685547 2.105469,3.685546 -5.873047,0 0,-1.267578 -2.445313,0 -10.261718,0 -2.4453129,0 0,1.267578 -5.8730469,0 2.1054688,-3.685546 -2.1054688,-3.685547 4.3183594,0 0,-1.269531 z" color="#000" font-family="sans-serif" font-weight="400" overflow="visible" transform="translate(0 1016.362)" white-space="normal"/></g></svg>