<?xml version="1.0" standalone="no"?>
<!DOCTYPE svg PUBLIC "-//W3C//DTD SVG 1.1//EN" "http://www.w3.org/Graphics/SVG/1.1/DTD/svg11.dtd" >
<svg xmlns="http://www.w3.org/2000/svg">
<metadata>Generated by IcoMoon</metadata>
<defs>
<font id="toman" horiz-adv-x="1024">
<font-face units-per-em="1024" ascent="960" descent="-64" />
<missing-glyph horiz-adv-x="1024" />
<glyph unicode="&#x20;" horiz-adv-x="512" d="" />
<glyph unicode="&#xe900;" glyph-name="copyright" d="M512 854.857c230.4 0 416-185.6 416-416s-185.6-416-416-416-416 185.6-416 416 185.6 416 416 416zM512 950.857c-281.6 0-512-230.4-512-512s230.4-512 512-512 512 230.4 512 512-230.4 512-512 512v0zM633.6 291.657c-32-25.6-76.8-44.8-121.6-44.8-108.8 0-192 83.2-192 192s83.2 192 192 192c51.2 0 102.4-19.2 134.4-57.6l70.4 70.4c-51.2 51.2-128 83.2-204.8 83.2-160 0-288-128-288-288s128-288 288-288c70.4 0 128 25.6 179.2 64l-57.6 76.8z" />
<glyph unicode="&#xe901;" glyph-name="instagram" d="M687.61 716.13h-351.218c-56.053 0-101.666-45.61-101.666-101.666v-351.215c0-56.064 45.613-101.677 101.666-101.677h351.218c56.061 0 101.674 45.613 101.674 101.677v351.215c0 56.053-45.613 101.666-101.674 101.666zM511.994 256.298c-100.653 0-182.553 81.9-182.553 182.565 0 100.653 81.9 182.553 182.553 182.553 100.664 0 182.565-81.9 182.565-182.553 0-100.664-81.9-182.565-182.565-182.565zM700.433 583.666c-23.831 0-43.208 19.377-43.208 43.194 0 23.819 19.377 43.196 43.208 43.196 23.816 0 43.194-19.377 43.194-43.196s-19.377-43.194-43.194-43.194zM511.994 544.264c-58.106 0-105.424-47.295-105.424-105.402 0-58.129 47.318-105.435 105.424-105.435 58.129 0 105.413 47.307 105.413 105.435 0 58.106-47.284 105.402-105.413 105.402zM0 950.857v-1024h1024v1024h-1024zM866.417 263.249c0-98.611-80.198-178.809-178.806-178.809h-351.218c-98.599 0-178.809 80.198-178.809 178.809v351.215c0 98.599 80.21 178.809 178.809 178.809h351.218c98.608 0 178.806-80.21 178.806-178.809v-351.215z" />
<glyph unicode="&#xe902;" glyph-name="telegram" d="M710.581 614.034l-375.603-232.954c-6.613-4.101-9.621-12.154-7.314-19.587l50.383-162.348c1.058-3.411 6.029-2.941 6.428 0.609l12.246 108.86c0.472 4.206 2.49 8.087 5.66 10.891l318.068 281.265c7.615 6.732-1.229 18.623-9.869 13.264zM0 950.857v-1024h1024v1024h-1024zM853.572 684.779l-116.911-558.949c-5.487-26.229-36.25-38.009-57.852-22.153l-176.517 129.57-89.965-91.857c-15.789-16.122-43.065-9.597-49.848 11.927l-64.939 206.058-174.005 51.383c-22.829 6.741-24.175 38.569-1.995 47.213l684.762 266.844c26.064 10.156 52.999-12.655 47.271-40.036z" />
<glyph unicode="&#xe903;" glyph-name="cv2" d="M213.697 950.857h357.393c125.23-112.976 241.060-236.191 360.582-355.21v-552.456c-10.744-57.915-55.9-102.736-112.808-116.333h-609.364c-58.25 10.24-103.407 55.565-117.172 112.472v795.195c11.247 60.433 60.433 108.275 121.369 116.333zM175.423 801.286c0.671-247.271-1.511-494.542 1.175-741.645-1.847-34.245 35.085-54.557 65.637-50.025 179.788-0.336 359.743-0.168 539.53 0 30.72-4.532 67.651 15.948 65.637 50.193 3.022 159.643 0.336 319.287 1.175 478.93-94.678 0.671-189.524-0.839-284.202 0.336-24.677-2.854-48.85 17.458-46.164 43.142-1.679 95.35 0.336 190.699-0.504 286.049-97.7-1.175-195.399 2.182-292.763-1.343-34.077 1.175-54.39-35.085-49.521-65.637zM600.97 809.511c-0.336-62.615-0.168-125.398-0.168-188.181 62.951 0.168 125.734 0 188.685 0.168-62.615 62.951-125.566 125.398-188.517 188.013z" />
<glyph unicode="&#xe904;" glyph-name="linkedin" d="M48.896 950.857h926.976c1.792-30.208 17.92-46.592 48.128-48.64v-927.232c-30.208-1.792-46.592-17.664-48.64-48.128h-927.488c-2.304 29.44-18.176 46.336-47.872 50.432v925.44c30.208 1.792 46.592 17.92 48.896 48.128zM163.072 814.409c-56.576-43.008-51.456-139.776 9.216-176.384 65.536-47.104 168.192 3.328 169.472 84.224 10.752 91.648-110.336 153.856-178.688 92.16zM150.528 572.233c0.512-171.52-6.144-343.808 2.304-515.072 39.936-37.888 112.896-9.472 165.632-9.984-4.096 175.36 1.536 350.976-3.584 526.336-54.784 0.512-109.568 0-164.352-1.28zM391.936 570.697c2.816-177.408-7.68-355.328 5.888-532.48 54.272 1.792 108.288 3.328 162.56 6.656 5.632 111.104-13.056 225.28 11.776 334.592 19.2 73.728 138.24 81.664 160.256 6.4 23.040-114.176 2.048-232.192 15.616-347.648 55.040 1.024 110.336 1.28 165.376 2.304-1.024 139.52 17.92 282.88-15.36 419.84-35.84 139.776-241.152 163.072-328.448 60.416-5.632 14.080-17.152 42.24-23.040 56.32-51.456-2.048-102.912-4.096-154.624-6.4z" />
<glyph unicode="&#xe905;" glyph-name="location" d="M475.169 950.857h69.533c194.23-14.534 360.052-177.053 380.201-370.622v-67.055c-5.615-55.99-20.48-110.988-45.419-161.528-80.103-169.621-211.406-310.173-358.235-424.795h-17.672c-185.972 148.315-368.64 341.223-404.48 585.497v59.293c14.865 195.881 181.017 361.373 376.072 379.21zM325.533 839.869c-139.561-82.746-205.13-268.222-146.498-420.005 66.89-170.942 193.404-311.164 333.295-426.942 141.874 118.255 271.36 260.955 336.268 436.521 47.236 135.102-0.495 295.639-112.64 384.165-113.135 94.307-286.225 105.703-410.426 26.261zM453.863 789.825c142.699 36.996 300.098-70.194 317.44-216.692 24.444-139.892-86.875-282.261-227.592-295.804-138.075-20.15-277.966 88.361-291.51 227.427-18.498 128.661 75.148 258.643 201.662 285.068zM464.434 732.844c-99.592-21.966-171.603-126.679-153.6-227.592 14.039-108.181 126.183-189.44 233.538-169.455 108.015 14.369 190.101 126.514 168.63 234.034-16.186 112.64-138.735 192.743-248.568 163.014z" />
<glyph unicode="&#xe906;" glyph-name="mail" d="M106.086 827.977h809.37c54.067-11.469 95.027-51.814 108.544-105.267v-565.658c-11.878-53.658-52.634-93.594-105.677-107.315h-809.779c-54.067 11.469-94.822 51.814-108.544 105.267v564.838c11.469 54.272 52.429 94.822 106.086 108.134zM87.45 758.959c-39.936-24.576-28.058-76.595-30.72-115.712 2.048-157.696-2.048-315.392 1.843-473.088-1.434-43.213 44.442-68.813 83.354-63.078 246.17-0.41 492.544-0.205 738.714 0 40.346-6.349 87.654 20.89 84.992 65.946 2.867 170.803 0.819 341.606 1.024 512.614 5.939 39.731-21.094 85.811-65.126 83.763-239.206 3.686-478.618-0.205-717.824 1.843-31.744-2.867-67.789 5.53-96.256-12.288zM109.978 689.123c12.698 14.95 35.226 43.827 56.115 21.299 117.146-100.147 229.581-205.824 345.498-307.814 115.712 101.786 228.557 207.258 345.702 307.405 20.685 23.757 44.032-5.53 56.934-20.89-87.45-84.992-181.043-163.43-271.36-245.555 89.907-85.606 183.296-167.731 270.131-256.41-14.131-10.035-36.045-44.646-55.296-20.685-88.678 75.981-170.803 159.539-257.434 237.978-29.491-25.395-58.982-50.381-88.474-75.366-30.72 25.6-61.235 51.405-91.341 77.619-85.197-78.643-166.707-161.178-253.133-238.592-20.070-24.986-45.261 4.096-57.549 20.275 87.45 87.859 179.2 171.213 268.493 257.024-89.293 81.306-181.862 159.334-268.288 243.712z" />
<glyph unicode="&#xe907;" glyph-name="phone" d="M524.083 950.857h49.766c224.051-38.298 410.010-224.051 450.15-447.488v-44.646c-31.334 10.035-60.006 25.805-63.693 62.259-31.13 110.387-92.365 214.016-186.982 281.395-62.464 50.586-141.926 68.198-214.221 98.918-8.806 12.493-26.214 37.274-35.021 49.562zM151.962 879.996c51.61 32.154 105.882-7.782 141.517-44.032 45.875-47.309 101.786-90.112 126.976-152.576 10.445-72.704-62.464-116.531-102.4-166.093 67.174-110.592 160.563-202.752 270.541-270.336 50.79 40.141 96.051 114.893 169.984 100.762 67.994-33.997 117.146-95.642 168.55-150.118 33.587-32.768 48.333-87.859 17.203-127.386-44.851-61.030-100.966-118.374-174.285-143.36h-56.525c-224.666 39.731-416.973 188.416-554.189 365.568-76.8 100.147-137.626 215.45-159.334 340.992v58.778c21.914 80.282 85.197 141.926 151.962 187.802zM66.97 599.42c68.813-237.568 250.061-434.79 465.715-550.502 74.957-36.659 160.154-78.234 245.35-57.139 50.995 33.792 108.749 78.234 126.566 138.65-46.49 65.331-109.568 116.736-168.346 170.803-43.008-35.43-79.258-78.438-124.928-110.182-27.853-14.131-53.453 13.926-78.029 23.552-103.424 64.307-192.512 153.805-254.362 258.867-10.24 23.347-34.816 57.754-8.602 79.667 32.973 38.298 69.427 73.523 102.81 111.411-52.838 60.826-105.882 123.29-171.213 171.008-86.221-39.526-174.899-133.325-134.963-236.134zM524.698 745.647c24.371 31.13 62.669 14.541 93.389 5.12 115.507-39.936 205.619-147.251 220.774-268.902-10.035-9.626-30.106-29.082-40.141-38.707-30.925 92.57-70.451 197.222-168.141 237.363-34.816 22.528-94.822 17.408-105.882 65.126z" />
<glyph unicode="&#xe908;" glyph-name="telegram2" d="M476.57 950.857h69.837c248.832-14.131 463.258-228.352 477.594-477.184v-69.632c-14.541-248.832-228.352-462.643-477.184-477.184h-70.042c-249.037 14.746-462.848 228.966-476.774 478.003v69.222c14.746 248.422 228.147 461.824 476.57 476.774zM376.627 879.177c-188.826-55.501-328.499-242.893-324.813-440.32-3.072-186.573 121.037-365.363 295.731-430.080 165.069-64.922 365.773-23.142 489.882 104.243 131.277 127.386 171.622 336.486 99.123 504.218-84.582 213.197-341.606 334.234-559.923 261.939zM667.853 672.739c26.829 10.24 54.067 29.286 83.968 17.818-87.245-193.741-161.997-393.83-258.867-582.861-47.923 65.126-80.282 139.878-127.59 205.21-61.85 55.091-150.938 71.885-205.824 135.373 168.55 76.8 339.558 148.275 508.314 224.461zM220.774 439.062c50.995-29.082 102.195-58.163 153.6-87.040 92.57 91.75 185.549 182.886 276.89 275.866-143.565-62.669-287.13-125.542-430.49-188.826zM398.746 328.265c29.901-52.019 60.621-103.424 90.317-155.648 65.946 142.95 126.362 288.563 189.030 433.152-93.594-92.16-186.368-184.934-279.347-277.504z" />
<glyph unicode="&#xe909;" glyph-name="twitter" d="M663.552 861.257h82.944c43.52-18.944 84.992-41.472 126.464-64.768 43.776 14.848 87.552 29.952 131.328 45.056-28.672-38.912-57.856-77.056-87.552-114.944 26.624 7.424 80.128 22.272 107.008 29.952-32.512-36.864-65.792-72.96-99.328-108.544-3.328-196.608-86.272-397.568-247.296-516.096-87.808-67.84-196.096-101.888-304.896-115.456h-107.008c-91.648 14.848-176.896 52.48-265.216 79.616v11.264c107.776-2.304 211.456 27.648 303.872 81.664-82.944 24.576-153.344 76.032-196.096 152.064 24.32 2.816 72.704 8.704 97.024 11.52-98.304 27.392-158.464 112.128-173.056 210.688 23.296-8.192 69.888-24.832 93.184-33.28-74.752 79.616-100.608 186.88-66.304 291.072 119.296-117.248 266.24-207.616 435.456-225.536-6.144 115.968 51.968 232.192 169.472 265.728z" />
<glyph unicode="&#xe90a;" glyph-name="qbit" d="M104.16 683.497c139.040 81.12 277.6 163.2 416.8 244 138.4-81.6 277.12-162.72 415.84-243.84 0.32-62.24 0.32-124.32 0-186.56-85.92-50.080-171.52-100.64-257.44-150.72-0.48-100.96 0-201.92-0.32-302.72-53.12-30.88-105.92-62.24-159.2-92.8-138.24 81.92-277.12 162.88-415.68 244.16-0.32 162.88-0.32 325.6 0 488.48zM262.88 590.537c-0.32-100.8-0.32-201.76 0-302.72 85.92-50.080 171.68-100.64 257.6-150.88 0.16 100.64 0 201.44 0 302.080 85.92 50.56 171.84 100.8 257.76 151.36-85.76 50.56-171.68 100.48-257.28 151.2-86.4-49.92-172-100.8-258.080-151.040zM778.4 288.297c52.96 30.88 105.6 61.76 158.56 92.64 0.16-62.080 0-124-0.16-186.080-52.8-30.88-105.6-61.76-158.4-92.48-0.32 61.92-0.16 124 0 185.92z" />
<glyph unicode="&#xe90b;" glyph-name="chevron-thin-right" d="M678.4 460.8l-365.619 379.904c-13.722 13.824-13.722 36.198 0 50.125 13.722 13.824 35.891 13.824 49.613 0l400.896-404.89c13.722-13.875 13.722-36.301 0-50.125l-400.896-404.89c-13.722-13.875-35.891-13.824-49.613 0-13.722 13.773-13.722 36.198 0 50.125l365.619 379.75z" />
<glyph unicode="&#xe90c;" glyph-name="chevron-thin-up" d="M132.198 261.581c-13.926-13.722-36.301-13.722-50.125 0s-13.875 35.891 0 49.613l404.89 400.896c13.824 13.722 36.198 13.722 50.125 0l404.89-400.896c13.824-13.722 13.824-35.891 0-49.613-13.875-13.722-36.301-13.722-50.074 0l-379.904 365.619-379.802-365.619z" />
<glyph unicode="&#xe90d;" glyph-name="chevron-thin-left" d="M711.219 80.998c13.722-13.926 13.722-36.301 0-50.125s-35.891-13.875-49.613 0l-400.896 404.89c-13.722 13.824-13.722 36.198 0 50.125l400.896 404.89c13.722 13.824 35.891 13.824 49.613 0 13.722-13.875 13.722-36.301 0-50.125l-365.619-379.853 365.619-379.802z" />
<glyph unicode="&#xe90e;" glyph-name="chevron-thin-down" d="M891.802 660.019c13.926 13.722 36.301 13.722 50.125 0s13.875-35.891 0-49.613l-404.89-400.896c-13.824-13.722-36.198-13.722-50.125 0l-404.89 400.896c-13.824 13.722-13.824 35.891 0 49.613 13.875 13.722 36.301 13.722 50.125 0l379.853-365.619 379.802 365.619z" />
<glyph unicode="&#xe90f;" glyph-name="home" d="M849.709 545.747l126.31-103.008c5.161-4.322 13.158-6.441 19.393-6.441 7.845 0 16.53 3.345 21.967 9.841 9.772 11.658 8.685 29.014-2.973 38.773l-483.399 405.482c-5.12 4.294-11.218 6.276-17.425 6.318-0.44 0.041-0.853-0.014-1.294 0.014-0.44-0.028-0.867 0.028-1.308-0.014-6.207-0.041-12.401-2.023-17.521-6.318l-483.619-405.482c-11.644-9.759-13.172-27.128-3.413-38.773 5.45-6.497 13.255-9.841 21.114-9.841 6.249 0 9.070 2.106 14.232 6.441l92.204 80.188v-432.294c0-60.134 62.639-109.656 123.861-109.656h495.497c57.891 0 96.36 45.228 96.36 109.656l0.014 455.114zM601.96 36.032h-206.457v300.161c0 14.686 32.703 30.17 55.895 30.17h131.844c20.343 0 18.719-10.364 18.719-30.17v-300.161zM794.654 90.633c0-29.413-11.149-54.601-41.305-54.601h-96.333v300.161c0 50.087-23.275 85.226-73.774 85.226h-131.844c-50.444 0-110.95-33.281-110.95-85.226v-300.161h-82.597c-30.68 0-68.805 24.954-68.805 54.601v476.944c0 0.468 3.331 0.922 3.303 1.404l318.288 265.394 293.747-248.451c-4.391-4.872-9.717-11.259-9.717-18.347l-0.014-476.944z" />
<glyph unicode="&#xe910;" glyph-name="close" d="M810 664.667l-238-238 238-238-60-60-238 238-238-238-60 60 238 238-238 238 60 60 238-238 238 238z" />
<glyph unicode="&#xe911;" glyph-name="menu" d="M128 682.667h768v-86h-768v86zM128 384.667v84h768v-84h-768zM128 170.667v86h768v-86h-768z" />
<glyph unicode="&#xe912;" glyph-name="bazar" horiz-adv-x="924" d="M418.966 927.969c22.478 20.355 58.568 34.966 85.791 14.361 71.43-48.078 102.775-133.62 128.749-212.043 73.553-22.853 152.351-30.22 221.159-67.184 25.475-15.86 46.205-38.088 69.432-56.944v-67.809c-33.342-142.111-68.683-285.346-133.12-417.218-24.476-49.077-48.702-105.522-102.65-128.624-55.571-23.602-115.138-39.836-175.703-43.707h-107.020c-19.356 2.373-38.587 4.995-57.943 7.867-45.331 18.232-95.657 23.477-136.991 51.325-36.215 20.105-56.32 57.943-72.929 94.158-70.681 162.092-110.892 335.672-137.74 509.627v4.62l12.238-40.211c0.749 66.060 64.312 97.155 118.884 110.767 53.323 11.364 105.897 26.349 159.969 33.218 46.205 66.56 64.437 152.726 127.875 207.797zM456.804 916.855c-15.61-14.985-31.844-29.471-48.453-43.208-3.247-16.109-9.366-30.845-25.725-37.214-0.5-13.237-0.5-26.474-0.375-39.711 12.488 9.99 10.989 27.099 13.612 41.46 30.595 0.749 48.328 34.341 79.298 29.721 24.351-2.248 49.202-16.734 59.317-39.711 5.869 1.124 17.858 3.372 23.727 4.371-0.125-9.116-0.624-27.223-0.874-36.34 11.239 6.868 10.365 19.856 11.489 31.22-5.744 4.121-17.358 12.363-23.102 16.484-0.5 33.592-33.967 50.576-53.947 72.929-11.614 0.125-23.352 0-34.966 0zM390.619 729.288c55.82 1.124 111.641 0.125 167.337 0.749-4.496 43.083-36.839 72.304-65.686 100.901-55.446 7.243-99.153-51.2-101.651-101.651z" />
<glyph unicode="&#xe913;" glyph-name="apple" horiz-adv-x="735" d="M560.195 972.8h6.122c4.897-18.588 20.257-36.285 14.692-56.32-15.805-55.875-58.991-100.397-107.52-130.115-34.95-22.038-77.913-18.922-117.426-20.146 8.459 56.431 29.941 115.757 75.91 152.264 41.294 21.037 88.932 28.939 128.223 54.317zM207.583 647.68c97.614 57.322 216.932 47.972 323.228 25.377 43.52-12.577 94.052-19.59 125.44-55.43 28.717-45.078 15.36-101.064 24.932-150.929 8.57 0.223 17.030 0.111 25.489-0.223 6.122-22.038 11.798-45.078 27.937-62.442v-143.249c-2.003-18.477-4.23-36.953-6.456-55.318-17.475-57.99-32.946-116.981-59.993-171.409-94.386-25.155-193.224-16.362-285.83 11.464-0.334 7.012-1.002 21.259-1.336 28.383 71.569 7.012 142.915 36.397 189.329 92.939 39.736 50.532 80.25 110.414 69.677 178.198-10.797-21.037-21.259-42.296-31.388-63.777-0.89 60.104 0 124.661-34.504 176.863-55.096 84.146-144.139 142.358-240.306 169.071-41.85 8.459-84.146 13.579-126.219 20.48zM68.563 610.95c108.633 20.703 223.277 15.026 326.122-27.603-63.666-15.917-130.003-29.273-185.99-65.336-69.899-42.852-112.083-115.645-138.797-190.998 0.557-14.024 1.113-28.16 1.67-42.184-4.897-4.563-14.803-13.69-19.812-18.254-1.447-22.038-2.894-44.188-4.23-66.226-4.341-1.113-13.023-3.228-17.363-4.341-9.683 29.050-19.812 57.878-30.163 86.595v160.835l12.8 0.111c6.456 59.214 26.49 115.757 55.763 167.402zM85.816 333.69c5.12 0.223 15.471 0.557 20.591 0.779 9.016-50.643 13.69-104.626 43.743-148.146 40.626-59.325 98.504-104.181 158.497-142.692 17.809-5.009 35.729-10.129 53.76-14.692l-1.558-8.014c34.282-6.233 68.786-11.019 103.624-12.8-1.781-4.563-5.12-13.69-6.901-18.254 13.023-2.671 26.045-5.343 38.957-8.125-101.621-15.805-206.915-28.494-308.202-3.562-25.377 9.906-51.311 18.477-77.579 25.823-22.261 22.706-44.077 48.529-47.193 81.586-5.343 60.995-0.445 122.323-1.002 183.318 5.12 4.007 15.471 11.91 20.591 15.917 1.113 16.25 2.003 32.612 2.671 48.863z" />
<glyph unicode="&#xe914;" glyph-name="gplay" horiz-adv-x="924" d="M36.215 940.207c49.452 18.732 92.909-10.24 133.62-34.716 128-72.554 255.75-145.733 384.25-217.538 114.388-69.557 234.896-128.5 346.911-201.803 1.374-4.995 4.121-15.235 5.495-20.23l17.608-3.122c-11.489-31.469-32.094-59.317-62.314-74.302-248.258-140.613-496.016-282.349-744.273-423.087-9.116-10.365-20.73-15.86-34.841-16.609h-15.485c-7.992 1.873-23.852 5.744-31.719 7.742-2.123 19.231-19.856 33.467-16.983 53.448-0.749 275.231 0 550.587-0.375 825.819 1.124 35.715-6.369 74.802 18.107 104.398z" />
<glyph unicode="&#xe915;" glyph-name="android" d="M896 576c-35.2 0-64-28.8-64-64v-256c0-35.2 28.8-64 64-64s64 28.8 64 64v256c0 35.2-28.8 64-64 64zM128 576c-35.2 0-64-28.8-64-64v-256c0-35.2 28.8-64 64-64s64 28.8 64 64v256c0 35.2-28.802 64-64 64zM224 224c0-53.020 42.98-96 96-96v0-128c0-35.2 28.8-64 64-64s64 28.8 64 64v128h128v-128c0-35.2 28.8-64 64-64s64 28.8 64 64v128c53.020 0 96 42.98 96 96v352h-576v-352zM798.216 639.998c-9.716 87.884-59.004 163.792-129.62 209.646l32.024 64.046c7.904 15.806 1.496 35.028-14.31 42.932s-35.030 1.496-42.932-14.312l-32.142-64.286-8.35 3.316c-28.568 9.502-59.122 14.66-90.886 14.66-31.762 0-62.316-5.158-90.888-14.656l-8.348-3.316-32.142 64.282c-7.904 15.808-27.128 22.212-42.932 14.312-15.808-7.904-22.214-27.126-14.312-42.932l32.022-64.046c-70.616-45.852-119.904-121.762-129.622-209.644v-32h574.222v31.998h-1.784zM416 704c-17.674 0-32 14.328-32 32 0 17.648 14.288 31.958 31.93 31.996 0.032 0 0.062-0.002 0.094-0.002 0.018 0 0.036 0.002 0.052 0.002 17.638-0.042 31.924-14.35 31.924-31.996 0-17.672-14.326-32-32-32zM608 704c-17.674 0-32 14.328-32 32 0 17.646 14.286 31.954 31.924 31.996 0.016 0 0.034-0.002 0.050-0.002 0.032 0 0.064 0.002 0.096 0.002 17.64-0.038 31.93-14.348 31.93-31.996 0-17.672-14.326-32-32-32z" />
<glyph unicode="&#xe916;" glyph-name="apple2" d="M791.498 415.908c-1.294 129.682 105.758 191.876 110.542 194.966-60.152 88.020-153.85 100.078-187.242 101.472-79.742 8.074-155.596-46.948-196.066-46.948-40.368 0-102.818 45.754-168.952 44.552-86.916-1.292-167.058-50.538-211.812-128.38-90.304-156.698-23.126-388.84 64.89-515.926 43.008-62.204 94.292-132.076 161.626-129.58 64.842 2.588 89.362 41.958 167.756 41.958s100.428-41.958 169.050-40.67c69.774 1.296 113.982 63.398 156.692 125.796 49.39 72.168 69.726 142.038 70.924 145.626-1.548 0.706-136.060 52.236-137.408 207.134zM662.562 796.478c35.738 43.358 59.86 103.512 53.28 163.522-51.478-2.096-113.878-34.29-150.81-77.55-33.142-38.376-62.148-99.626-54.374-158.436 57.466-4.484 116.128 29.204 151.904 72.464z" />
<glyph unicode="&#xe917;" glyph-name="phone2" horiz-adv-x="1053" d="M49.445 813.422c22.528 126.976 176.713 110.299 272.969 101.522 112.055-10.24 114.103-143.067 137.801-226.45 27.209-65.536-22.528-119.954-60.855-166.473 52.663-79.579 121.125-146.578 199.241-201.289 84.261 109.714 220.891 52.37 328.558 18.139 86.894-39.79 68.169-150.674 68.169-228.498 6.729-69.632-45.934-136.338-116.151-142.482-433.591 25.454-818.322 409.015-829.733 845.531zM125.513 802.304c25.454-397.019 381.221-751.909 782.921-752.201 7.022 68.462 15.506 138.386 1.17 206.848-59.977 34.523-131.657 38.327-197.486 57.051-33.353-30.135-66.121-60.855-99.182-90.697-130.194 74.313-251.026 178.761-309.248 320.073 30.427 31.305 59.392 64.073 88.357 96.549-17.554 63.488-30.72 128.146-54.418 189.586-65.829 9.362-171.739 40.667-212.114-27.209z" />
<glyph unicode="&#xe918;" glyph-name="download2" d="M957.772 383.197c-3.327 7.975-11.090 13.18-19.705 13.18h-233.692v533.154c0 11.772-9.555 21.327-21.327 21.327h-341.22c-11.772 0-21.327-9.555-21.327-21.327v-533.156h-234.588c-8.615 0-16.379-5.204-19.705-13.138-3.285-7.975-1.494-17.146 4.606-23.246l425.458-426.865c4.009-4.009 9.427-6.27 15.099-6.27s11.090 2.261 15.099 6.228l426.695 426.865c6.1 6.102 7.933 15.271 4.606 23.248z" />
<glyph unicode="&#xe919;" glyph-name="download" d="M933.567 589.514h-240.938v361.343h-361.3v-361.343h-240.938l421.59-421.716 421.588 421.716zM90.39 47.476v-120.619h843.22v120.619h-843.22z" />
<glyph unicode="&#xe91a;" glyph-name="iapps" horiz-adv-x="1018" d="M199.649 903.213c14.9 3.679 30.229 6.254 45.681 6.316 177.698-0.184 355.457 0.061 533.154-0.123 106.018-3.924 198.239-97.372 202.347-203.083 0.613-173.896 0-347.853 0.307-521.749 0.858-55.186-21.338-109.942-58.987-150.105-39.856-42.309-97.249-68.001-155.562-67.817-175.429 0.245-350.919-0.245-526.348 0.184-104.24 4.66-196.032 94.919-201.857 199.159-0.184 180.028 0 360.117-0.061 540.206 3.066 91.547 72.784 174.938 161.326 197.013zM153.048 853.056c-51.323-32.314-85.109-90.259-88.236-150.841-1.042-29.984-0.123-60.091-0.368-90.137 51.936-0.061 103.81 0.245 155.746-0.123 72.906-4.783 143.851-34.583 198.668-82.778 29.31-28.083 60.214-54.327 90.811-80.939 24.343 22.381 50.096 43.229 73.949 66.161 37.771 38.078 85.047 66.468 136.125 82.778 75.42 25.14 155.807 11.466 233.68 14.9-0.613 35.196 1.533 70.576-1.042 105.711-10.669 90.627-93.816 164.698-184.994 165.434-167.826 0.491-335.651 0-503.477 0.245-38.814 0.491-78.118-9.198-110.862-30.413zM289.418 471.417c-13.061-4.17-21.584-16.801-23.73-29.984-2.453-91.976 52.794-182.235 135.818-221.908 69.963-36.177 157.402-31.701 225.587 6.684 70.76 39.856 119.385 116.258 123.8 197.626 2.943 16.74-4.292 36.852-21.461 42.738-20.787 11.037-49.667-7.849-47.46-31.333 0.981-41.512-11.282-83.821-37.649-116.319-38.262-49.054-104.73-74.317-165.925-62.482-81.613 12.263-146.242 90.627-142.686 173.099 5.703 25.631-21.032 51.507-46.295 41.88zM546.828 728.52c31.149 40.653 79.713 66.959 130.729 71.373 3.618-53.714-16.126-108.838-55.308-146.181-28.758-30.107-70.638-44.762-111.782-44.884-1.533 42.37 9.811 86.028 36.361 119.691z" />
<glyph unicode="&#xe91b;" glyph-name="smartphone" horiz-adv-x="862" d="M282.613 950.857h452.779c3.381-1.056 6.837-1.888 10.315-2.613 25.675-6.336 46.891-27.509 53.632-53.024 0.992-5.973 2.816-11.851 2.496-17.963 0.011-284.085 0.011-568.181 0.011-852.267-0.096-9.963 0.192-19.925-0.171-29.877-1.387-8.651-2.933-17.451-7.051-25.312-4.907-9.227-10.592-18.411-18.869-25.003-8.981-7.509-19.573-13.312-31.083-15.765-1.899-0.352-3.637-1.184-5.269-2.176h-445.589c-6.059 0.341-11.915 2.091-17.835 3.264-27.328 7.925-49.461 32.405-53.493 60.736-0.341 4.608-0.299 9.227-0.331 13.835 0.011 290.859 0 581.707 0.011 872.555 0.277 19.051 8.117 38.133 21.963 51.349 8.299 8.491 18.475 15.328 29.92 18.731 2.933 0.949 6.155 1.429 8.565 3.531zM256.299 878.356c-0.053-9.835-0.107-19.68 0.021-29.515 170.453-0.053 340.907-0.053 511.36 0-0.139 11.125 0.629 22.357-0.448 33.429-2.752 18.613-19.733 33.995-38.667 34.176-144.373 0.043-288.757 0.043-433.131 0-20.245-0.149-38.379-17.888-39.136-38.091zM255.797 814.569c-0.171-215.968 0.064-431.936-0.128-647.893 1.6-0.981 3.733-1.152 5.611-1.248 166.784-0.032 333.568 0.011 500.341-0.021 2.229 0.043 4.779 0.117 6.699 1.269-0.181 215.957 0.053 431.925-0.117 647.883-23.883 0.309-47.787 0.043-71.669 0.128-146.912-0.075-293.835 0.171-440.736-0.117zM256.427 131.326c-0.896-3.381-0.768-6.88-0.341-10.336-1.408-12.085 1.227-24.203-0.352-36.256 1.056-8.16-0.768-16.352 0.267-24.544 0.939-4.971-0.96-9.952-0.032-14.933 0.96-4.971-0.949-9.963 0.224-14.933-1.269-11.029 0.235-22.069 0.181-33.109 0.096-7.029 3.328-13.525 7.221-19.211 6.784-9.696 18.069-15.808 29.685-17.291 136.192-0.032 272.384 0 408.587-0.011 10.912-0.181 21.856 0.384 32.768-0.309-0.843 0.213-1.675 0.384-2.496 0.501l-0.128 0.459c15.904 2.037 30.133 14.027 34.261 29.568 1.824 8.704 2.549 17.739 1.547 26.603 0.64 7.083 0.725 14.261-0.064 21.333-0.299 3.925 1.045 7.819 0.277 11.733-0.597 3.541-0.235 7.125 0.075 10.667-0.523 3.541-0.448 7.125 0.085 10.656 0.171 9.963 0.011 19.925 0.053 29.888-0.789 6.72-0.491 13.504-0.469 20.256 0.363 3.104 0.725 6.229-0.203 9.269-170.379-0.075-340.768-0.075-511.147 0zM440.949 899.188c23.648 0.213 47.317 0.032 70.976 0.096 7.232 0.512 13.813-4.896 16.277-11.456 1.195-5.749 0.661-12.352-3.488-16.864-2.901-2.859-6.699-4.885-10.667-5.749-22.731-0.171-45.472 0-68.213-0.085-7.445-0.64-15.040 3.968-18.005 10.827-4.875 9.376 2.581 22.56 13.12 23.232zM557.099 898.462c7.147 1.707 14.752 0.416 22.091 0.821 9.312 1.269 18.283-7.413 17.813-16.693 0.299-6.027-3.403-11.819-8.597-14.699-4.971-3.221-11.115-1.707-16.672-2.048-5.557 0.352-11.691-1.173-16.661 2.037-5.163 2.901-8.949 8.683-8.672 14.709-0.331 6.901 4.523 13.205 10.699 15.872zM59.093 873.641c4.245 4.608 11.008 3.531 16.608 3.072 4.533-1.824 8.277-5.643 10.133-10.155 0.533-3.851 0.533-7.808-0.021-11.659-1.728-4.149-5.259-7.115-8.16-10.432-29.067-31.093-44.725-74.091-43.243-116.544 1.195-38.347 16.128-76.395 42.283-104.629 3.616-3.765 7.787-7.573 9.227-12.757 0.203-4.8 1.333-10.464-2.027-14.475-3.307-4.587-8.747-8.021-14.571-7.456-5.536-0.341-10.101 3.477-13.621 7.307-3.904 4.256-8.011 8.331-11.829 12.672-17.461 22.795-31.2 48.736-37.835 76.8-3.019 11.328-4.107 23.019-6.037 34.549v32.757c1.781 3.616 1.899 7.68 2.645 11.563 5.248 32.224 18.208 63.264 38.24 89.109 5.152 7.531 11.744 13.899 18.208 20.277zM134.635 842.153c5.749 1.248 12.875 1.856 17.728-2.293 4.373-3.115 6.827-8.469 6.123-13.824 0.651-5.365-2.795-9.877-6.453-13.365-15.68-15.637-25.44-36.501-29.707-58.059-0.245-9.248-2.219-18.496-0.747-27.755 0.928-4.821 0.011-9.888 1.792-14.56 4.416-21.013 14.965-40.725 30.261-55.819 3.211-3.083 5.12-7.403 5.621-11.787-0.224-7.765-5.749-15.339-13.397-17.333-5.056-0.789-10.827-0.299-14.645 3.499-5.045 4.992-10.315 9.867-14.133 15.915-13.525 17.472-22.805 38.176-27.040 59.819-0.693 5.269-2.549 10.357-2.197 15.755-1.995 11.264-0.459 22.72 0.587 33.973 1.504 4.341 1.28 9.003 2.741 13.333 4.48 20.096 14.005 38.827 26.219 55.296 5.664 5.803 10.091 13.067 17.248 17.205zM502.848 113.972c4.491 0.075 8.949 1.451 13.408 0.32 8.117-0.021 16.064-2.144 23.499-5.323 12.373-6.379 23.659-15.595 30.677-27.797 10.389-17.205 12.512-39.147 5.568-58.005-8.448-23.488-30.379-42.048-55.477-44.523-5.333-0.224-10.677-0.245-16.011-0.053-19.776 2.208-38.069 13.621-49.429 29.856-5.301 7.851-8.672 16.907-10.656 26.123-0.491 7.477-0.459 14.976-0.085 22.453 2.005 11.339 6.485 22.411 13.845 31.371 4.437 4.779 8.971 9.525 14.048 13.643 9.099 6.272 19.541 10.848 30.613 11.936zM506.027 79.892c-10.347-1.216-18.88-8.576-24.16-17.184-4.299-7.115-4.021-15.765-3.403-23.765 2.464-11.691 11.808-21.44 23.2-24.853 5.28-2.229 11.168-1.461 16.747-1.28 9.515 2.155 18.315 7.979 23.285 16.48 4.725 7.189 4.491 16.192 3.84 24.416-2.464 11.029-10.901 20.469-21.312 24.672-5.909 1.611-12.128 3.264-18.197 1.515z" />
<glyph unicode="&#xe91c;" glyph-name="access-denied" d="M679.637 950.857h8.16c-3.275-1.525-6.709-2.613-10.261-3.221-7.221-1.387-13.739-4.928-20.533-7.563 6.496 5.632 15.243 6.827 22.635 10.784zM701.664 950.857h4.491c7.477-3.2 15.936-4.341 22.475-9.515-6.763 2.368-13.259 5.685-20.416 6.709-2.432 0.267-4.629 1.355-6.549 2.805zM677.365 913.417c5.003 4.021 11.936 4.832 18.155 4.843 5.131-0.651 10.784-1.333 14.848-4.843-10.549 4.021-22.453 4.032-33.003 0zM630.485 774.985c2.763 7.221 5.888 14.869 11.84 20.075-2.581-4.565-5.643-8.864-7.915-13.611-5.771-12.373-7.136-26.517-4.651-39.893 3.317-32.288 7.051-64.544 10.72-96.8 0.448-6.987 1.344-13.995 3.328-20.725 1.867-6.443 5.664-12.043 9.141-17.685-4.448 3.339-6.752 8.608-8.971 13.525-2.368 6.24-4.245 12.768-4.405 19.477-1.461 12.981-3.051 25.941-4.203 38.955-1.589 8.16-1.355 16.533-3.019 24.693-1.035 13.077-2.539 26.123-4.395 39.104-0.405 10.965-1.643 22.421 2.528 32.885zM677.205 782.409c7.232 4.181 15.968 4.171 24.011 3.243 7.317-1.451 15.104-5.067 18.837-11.851-5.195 4.619-10.976 9.408-18.144 10.187-5.355 0.363-10.741 0.363-16.075 0-7.189-0.8-12.949-5.643-18.176-10.219 1.803 4.107 5.792 6.528 9.547 8.64zM752.949 783.422c1.504-1.536 2.549-3.435 3.264-5.461 2.048-5.803 3.819-11.808 4.181-17.995 1.056-10.208-1.696-20.245-1.973-30.411-1.707-9.525-2.037-19.2-3.552-28.747-0.437-8.747-2.251-17.344-2.56-26.101-0.949-6.315-1.909-12.629-2.155-19.019-2.144-11.435-1.429-23.413-5.803-34.389-2.101-4.971-4.192-10.336-8.512-13.835 2.997 5.44 6.347 10.763 8.149 16.757 1.899 5.536 2.101 11.424 3.051 17.152 3.723 36 7.979 71.915 11.787 107.893 1.323 11.701-1.685 23.328-5.877 34.155zM721.035 772.734c4.672-4.331 5.984-10.955 6.635-17.024-0.747-8.416-1.077-16.896-2.709-25.216-0.491-9.205-2.176-18.293-2.709-27.509-1.717-9.056-1.643-18.315-3.349-27.371-0.352-9.259-2.464-18.315-2.763-27.573-0.832-4.981-1.056-10.123-2.656-14.933-2.987-8.107-11.456-14.016-20.171-13.429-8.597-0.171-16.512 6.069-19.296 14.037-2.272 6.976-1.76 14.421-2.997 21.568-1.056 6.048-1.013 12.213-2.027 18.261-1.12 5.973-0.928 12.107-2.059 18.080-1.216 6.048-0.832 12.267-2.016 18.315-0.704 3.467-0.96 6.997-1.12 10.528-0.277 5.717-1.888 11.275-1.973 17.003-0.203 7.349-3.104 14.56-1.632 21.952 0.981 4.085 2.208 8.373 5.355 11.36-1.909-4.459-3.755-9.099-3.797-14.037-0.192-10.741 2.144-21.312 2.869-32 3.349-28.683 6.293-57.397 9.717-86.080 0.661-9.301 8.629-17.184 17.899-17.877 9.333-0.896 18.624 5.824 20.789 14.923 1.28 5.749 0.96 11.701 2.112 17.472 3.093 28.501 6.379 56.992 9.387 85.504 1.067 7.029 1.995 14.176 1.248 21.291-0.672 4.533-2.933 8.608-4.736 12.757zM32.565 620.66c31.093 0.395 62.208 0.053 93.301 0.171 118.421 0 236.853-0.011 355.285 0 1.717 0 3.403-0.363 5.12-0.565-9.045-18.304-18.315-36.491-27.328-54.805-0.896-1.877-2.112-3.595-3.509-5.131 3.851 9.717 9.109 18.784 13.611 28.203 4.971 10.347 10.635 20.373 15.104 30.965-24.128 0.405-48.277 0.064-72.416 0.171-101.685 0-203.381 0-305.077 0-24.245-0.107-48.501 0.235-72.747-0.171-0.128-219.648-0.085-439.296-0.011-658.944 54.464-0.416 108.949-0.053 163.435-0.181 163.904 0 327.819 0 491.733 0 100.416 0.075 200.832-0.149 301.248 0.117 0.149 111.104 0.021 222.208 0.064 333.301-0.053 108.597 0.117 217.195-0.085 325.781-28.885 0.128-57.792 0.267-86.677-0.075 5.835-13.451 13.003-26.283 19.36-39.499 3.275-6.795 7.093-13.355 9.707-20.448-1.205 1.397-2.368 2.837-3.179 4.501-9.259 18.773-18.709 37.461-28.053 56.192 4.885 0.981 9.867 0.523 14.816 0.576 21.333 0.021 42.667-0.011 64 0.021 3.669-0.032 7.381 0.235 11.051-0.299 0.661-1.792 0.928-3.712 0.949-5.621-0.053-208.021 0-416.043-0.021-624.064-0.309-10.549 0.704-21.163-0.651-31.659-5.493-1.141-11.115-0.619-16.661-0.704-311.84-0.032-623.669 0.053-935.499-0.043-2.581-0.053-7.467-0.139-7.008 3.659 0.032 103.808 0.011 207.605 0.011 311.413 0.085 115.712-0.171 231.424 0.128 347.136zM713.365 591.529c8.363 3.019 15.093 8.949 21.568 14.827-2.645-4.683-7.029-8.011-11.403-10.955-13.461-8.907-31.019-11.701-46.336-6.251-6.069 2.293-12.715 4.629-16.864 9.888 2.016-1.227 4.064-2.411 6.101-3.605 13.867-8.576 31.808-9.6 46.933-3.904zM65.675 583.956c-0.32 1.963 0.587 4.405 2.901 4.373 107.947 0.064 215.904-0.011 323.861 0.043 2.027 0 5.312-0.715 4.789-3.445-0.085-65.525 0.075-131.061-0.085-196.587-52.725-0.405-105.472-0.064-158.208-0.171-56.875 0-113.749-0.011-170.624-0.011-1.952-0.299-2.901 0.907-2.592 2.773-0.043 64.341 0.043 128.683-0.043 193.024zM66.88 586.27c-0.256-34.56-0.032-69.12-0.107-103.68 0.096-30.997-0.192-62.005 0.139-92.992 14.293 0.864 28.64 0.16 42.955 0.384 91.019 0.011 182.037-0.021 273.067 0.011 4.245 0.107 8.501-0.085 12.736-0.523 0.491 7.211 0.181 14.432 0.256 21.653-0.053 58.368 0.117 116.736-0.085 175.115-11.765 0.224-23.531 0.032-35.307 0.096-97.877-0.043-195.765 0.085-293.653-0.064zM733.696 533.758c4.565-3.776 6.421-9.739 8.299-15.157 5.419-16.917 0.224-36.448-12.277-48.939-3.445-3.403-7.072-7.061-11.904-8.341 8.299 5.899 16.149 12.981 20.277 22.507 4.533 8.811 4.512 18.987 3.787 28.619-0.779 7.712-4.576 14.624-8.181 21.312zM287.381 102.43c5.877 3.189 11.051 7.477 16.544 11.253-3.019-4.523-7.915-7.189-12.32-10.165-13.077-8.459-28.693-12.299-44.139-12.821-11.989 0.587-24.064 3.008-34.923 8.267-2.816 1.291-5.685 2.667-7.733 5.045 5.675-2.475 11.104-5.568 17.035-7.445 21.419-6.933 45.771-5.099 65.536 5.867zM687.797 950.857h13.867c1.92-1.451 4.117-2.539 6.549-2.805 7.157-1.024 13.653-4.341 20.416-6.709 7.861-4.651 14.827-10.752 20.491-17.92 5.269-6.795 8.843-14.677 12.693-22.315 18.709-37.525 37.557-74.987 56.203-112.533 0.971-1.653 1.931-4.085 4.32-3.531 67.221-0.011 134.443 0 201.664 0v-858.187h-1024v858.176c189.216 0 378.421 0.053 567.637-0.032 9.28 17.365 17.696 35.179 26.624 52.725 10.549 21.067 21.077 42.155 31.616 63.232 4.085 8.117 7.851 16.533 13.653 23.627 5.088 5.92 10.848 11.317 17.472 15.488 6.795 2.635 13.312 6.176 20.533 7.563 3.552 0.608 6.987 1.696 10.261 3.221zM677.365 913.417c-7.627-3.627-13.6-10.304-17.205-17.867-63.189-126.347-126.368-252.693-189.525-379.061-2.219-5.013-5.504-9.952-5.163-15.669-0.192 1.045-0.373 2.080-0.576 3.104-0.363-3.936-1.557-7.765-1.6-11.744-0.192-8.747-0.672-17.781 2.443-26.133 7.851-25.013 32.651-44.171 59.072-43.819 98.485-0.064 196.971-0.011 295.456-0.032 16.363 0.096 32.736-0.203 49.109 0.181 10.763 1.419 21.173 5.643 29.92 12.096 13.088 9.685 22.24 24.544 24.939 40.597 0.352 7.147 0.395 14.315-0.053 21.451-1.813 10.752-7.264 20.331-12.043 29.963-60.565 121.163-121.173 242.293-181.707 363.467-4.181 9.525-10.315 18.976-20.064 23.467-4.064 3.509-9.717 4.192-14.848 4.843-6.219-0.011-13.152-0.821-18.155-4.843zM836.288 751.945c16.352-32.267 32.395-64.693 48.597-97.035 0.683-1.227 1.973-2.389 3.52-2.123 33.12 0.053 66.229 0.032 99.349 0.021 1.632-0.363 3.733 0.725 3.584 2.592 0.064 32 0.032 63.989 0.021 95.989-1.227 1.205-3.157 0.544-4.661 0.757-50.144-0.171-100.288 0.235-150.411-0.203zM33.472 752.073c-0.021-32.779 0.096-65.568-0.053-98.347 1.227-0.619 2.517-0.917 3.883-0.917 154.731 0 309.461 0.053 464.192-0.032 6.357 11.36 11.723 23.253 17.707 34.816 10.688 21.461 21.483 42.869 32.139 64.341-11.68 0.437-23.381 0.075-35.072 0.192-160.928-0.032-321.867 0.075-482.795-0.053zM32.565 620.66c-0.299-115.712-0.043-231.424-0.128-347.136 0-103.808 0.021-207.605-0.011-311.413-0.459-3.797 4.427-3.712 7.008-3.659 311.829 0.096 623.659 0.011 935.499 0.043 5.547 0.085 11.168-0.437 16.661 0.704 1.355 10.496 0.341 21.109 0.651 31.659 0.021 208.021-0.032 416.043 0.021 624.064-0.021 1.909-0.288 3.829-0.949 5.621-3.669 0.533-7.381 0.267-11.051 0.299-21.333-0.032-42.667 0-64-0.021-4.949-0.053-9.931 0.405-14.816-0.576 9.344-18.731 18.795-37.419 28.053-56.192 0.811-1.664 1.973-3.104 3.179-4.501 8.064-17.941 19.456-34.709 23.413-54.251 2.197-9.899 1.579-20.117 1.355-30.176-2.091-21.344-12.011-41.611-26.795-57.045-17.931-18.176-43.147-29.397-68.789-29.003-92.085-0.085-184.181-0.011-276.267-0.032-22.048 0.085-44.096-0.181-66.133 0.16-27.616 1.771-54.144 16.405-70.603 38.656-10.069 13.429-16.533 29.536-18.528 46.187 0.053 10.752-1.205 21.76 1.579 32.277 4.128 19.424 15.573 36.075 23.52 54.005 1.397 1.536 2.613 3.253 3.509 5.131 9.013 18.315 18.283 36.501 27.328 54.805-1.717 0.203-3.403 0.565-5.12 0.565-118.432-0.011-236.864 0-355.285 0-31.093-0.117-62.208 0.224-93.301-0.171zM678.848 816.99c7.147 1.909 14.635 1.013 21.952 1.141 21.835-1.323 42.581-14.997 52.149-34.709 4.192-10.827 7.2-22.453 5.877-34.155-3.808-35.979-8.064-71.893-11.787-107.893-0.949-5.728-1.152-11.616-3.051-17.152-1.803-5.995-5.152-11.317-8.149-16.757-0.235-0.277-0.683-0.832-0.907-1.109-6.475-5.877-13.205-11.808-21.568-14.827-15.125-5.696-33.067-4.672-46.933 3.904-2.037 1.195-4.085 2.379-6.101 3.605-2.72 2.144-5.184 4.64-7.381 7.307-3.477 5.643-7.275 11.243-9.141 17.685-1.984 6.731-2.88 13.739-3.328 20.725-3.669 32.256-7.403 64.512-10.72 96.8-2.485 13.376-1.12 27.52 4.651 39.893 2.272 4.747 5.333 9.045 7.915 13.611 9.152 11.189 22.283 19.211 36.523 21.931zM677.205 782.409c-3.755-2.112-7.744-4.533-9.547-8.64-0.917-0.832-1.6-1.877-2.112-2.987-3.147-2.987-4.373-7.275-5.355-11.36-1.472-7.392 1.429-14.603 1.632-21.952 0.085-5.728 1.696-11.285 1.973-17.003 0.16-3.531 0.416-7.061 1.12-10.528 1.184-6.048 0.8-12.267 2.016-18.315 1.131-5.973 0.939-12.107 2.059-18.080 1.013-6.048 0.971-12.213 2.027-18.261 1.237-7.147 0.725-14.592 2.997-21.568 2.784-7.968 10.699-14.208 19.296-14.037 8.715-0.587 17.184 5.323 20.171 13.429 1.6 4.811 1.824 9.952 2.656 14.933 0.299 9.259 2.411 18.315 2.763 27.573 1.707 9.056 1.632 18.315 3.349 27.371 0.533 9.216 2.219 18.304 2.709 27.509 1.632 8.32 1.963 16.8 2.709 25.216-0.651 6.069-1.963 12.693-6.635 17.024-0.245 0.267-0.736 0.8-0.981 1.067-3.733 6.784-11.52 10.4-18.837 11.851-8.043 0.928-16.779 0.939-24.011-3.243zM66.528 686.089c-0.117 10.965-0.149 21.941 0.021 32.907 10.688-0.096 21.387-0.096 32.085 0 0.224-0.715 0.683-2.133 0.917-2.848 0.203-9.707-0.107-19.413 0.139-29.12-1.899-0.459-3.776-1.184-5.771-1.045-9.131 0.075-18.261-0.085-27.392 0.107zM132.629 686.11c-0.117 10.965-0.16 21.931 0.021 32.896 10.688-0.117 21.387-0.096 32.085-0.011 0.235-0.715 0.693-2.144 0.928-2.859 0.128-9.589 0.043-19.189 0.043-28.789-2.24-1.813-5.163-1.312-7.829-1.365-8.416 0.107-16.832-0.128-25.248 0.128zM198.080 706.59c0.107 4.16-0.48 8.416 0.8 12.437 10.667-0.171 21.333-0.096 32-0.043 0.363-1.632 1.131-3.179 0.96-4.907-0.107-9.077 0.192-18.165-0.171-27.243-4.939-1.387-10.091-0.672-15.136-0.832-5.643 0.128-11.317-0.267-16.939 0.171-0.352 0.331-1.056 1.003-1.397 1.333-0.309 6.347-0.021 12.725-0.117 19.083zM66.88 586.27c97.888 0.149 195.776 0.021 293.653 0.064 11.776-0.064 23.541 0.128 35.307-0.096 0.203-58.379 0.032-116.747 0.085-175.115-0.075-7.221 0.235-14.443-0.256-21.653-4.235 0.437-8.491 0.629-12.736 0.523-91.029-0.032-182.048 0-273.067-0.011-14.315-0.224-28.661 0.48-42.955-0.384-0.331 30.987-0.043 61.995-0.139 92.992 0.075 34.56-0.149 69.12 0.107 103.68zM99.605 553.726c0.011-43.829-0.021-87.659 0.021-131.488 87.904-0.064 175.808-0.053 263.723 0 0.032 43.829 0 87.648 0.011 131.477-87.915 0.107-175.84 0.085-263.755 0.011zM674.635 550.121c8.501 3.968 18.080 4.096 27.253 3.307 12.587-2.144 24.352-9.269 31.808-19.669 3.605-6.688 7.403-13.6 8.181-21.312 0.725-9.632 0.747-19.808-3.787-28.619-4.128-9.525-11.979-16.608-20.277-22.507-8.832-5.568-19.584-6.805-29.813-5.973-19.659 2.027-37.013 17.291-41.973 36.373-2.048 6.368-1.461 13.152-1.248 19.723 2.389 16.907 14.037 32.149 29.856 38.677zM687.317 519.625c-6.005-2.635-10.464-9.024-9.579-15.712-0.597-7.051 5.045-13.003 11.285-15.349 4.576-0.32 9.675-0.981 13.589 1.973 8.629 4.896 10.144 17.963 3.467 25.077-4.544 5.323-12.512 6.24-18.763 4.011zM200 343.145c-0.235 4.512 1.227 9.163 3.723 12.896 28.48 0.203 56.96 0.011 85.44 0.096 1.579 0.181 2.987-0.533 4.373-1.184 3.488-12.992 8.523-25.557 12.352-38.464 1.131 0.021 2.261 0.032 3.392 0.171 11.787 5.803 23.403 12 35.328 17.483 20.736-20.107 40.896-40.864 61.451-61.173 1.696-1.088 1.28-3.125 0.8-4.779-5.739-11.819-11.968-23.413-17.493-35.349 13.173-4.949 26.645-9.12 40-13.557 0.245-30.005 0.085-60.021 0.085-90.037-13.28-4.693-26.677-9.013-40.032-13.44 5.568-13.131 12.683-25.579 18.784-38.475-21.099-20.64-41.835-41.653-62.667-62.549-2.293-0.725-4.267 0.853-6.219 1.771-8.917 4.725-18.144 8.843-27.040 13.621-1.845 0.811-3.616 2.4-5.771 1.963-1.024-1.152-1.355-2.741-1.909-4.149-2.891-9.525-6.453-18.848-9.173-28.427-1.035-1.963-1.696-4.075-1.803-6.315-2.443-1.099-5.163-0.757-7.765-0.821-27.755 0.117-55.52-0.149-83.275 0.139-1.632 8.139-5.461 15.659-7.211 23.776-0.139-0.587-0.277-1.184-0.405-1.792-0.544 6.176-3.883 11.648-4.939 17.728-1.045-0.16-2.112-0.181-3.104-0.576-10.88-5.419-21.739-10.848-32.565-16.373-1.227-0.715-2.517-0.885-3.883-0.533-20.885 20.864-41.632 41.877-62.72 62.528 5.941 12.992 13.013 25.451 18.837 38.485-13.333 4.491-26.656 9.045-40.085 13.301-0.043 30.091-0.203 60.192 0.085 90.272 8.811 2.603 17.515 5.547 26.229 8.48 4.448 2.112 9.451 2.667 13.835 4.939-6.155 12.651-12.427 25.259-18.912 37.739 21.003 21.451 42.4 42.528 63.627 63.765 9.589-4.576 19.008-9.504 28.544-14.187 3.275-1.493 6.325-3.947 10.112-3.755 1.28 6.016 4.608 11.499 4.917 17.707 0.128-0.597 0.256-1.205 0.395-1.813 1.099 4.629 3.2 8.981 3.957 13.696 0.224-0.917 0.437-1.877 0.704-2.805zM226.709 322.078c-3.328-9.248-6.539-18.571-9.227-28.021-1.461-2.965-1.973-6.357-3.851-9.12-2.219-1.44-4.747-2.272-7.296-2.912-3.115-1.589-6.4-2.784-9.589-4.203-1.685-0.789-3.723-1.323-5.461-0.363-9.845 4.939-19.68 9.888-29.504 14.869-1.493 0.864-3.211 1.387-4.939 1.035-9.205-9.259-18.475-18.464-27.68-27.723-1.461-1.12-0.587-3.168 0.181-4.427 5.632-10.752 10.784-21.749 16.448-32.491-2.88-6.155-5.472-12.427-7.797-18.816-0.779-2.389-3.552-2.869-5.611-3.68-6.699-2.176-13.291-4.704-20.128-6.432-3.989-1.803-8.171-3.211-12.491-3.979-0.331-14.315-0.139-28.651-0.107-42.976 11.264-3.328 22.283-7.445 33.504-10.944 1.771-0.661 4.021-1.205 4.736-3.211 2.357-6.379 4.811-12.747 7.883-18.827-5.621-11.275-11.136-22.613-16.981-33.771-0.491-1.024-0.725-2.645 0.288-3.456 9.6-9.483 19.051-19.115 28.672-28.565 10.155 4.96 20.203 10.155 30.304 15.243 2.229 1.013 4.608 3.072 7.179 1.888 6.091-2.667 12.171-5.397 18.475-7.52 5.099-12.459 8.427-25.579 13.248-38.155 14.005 0.032 28.021-0.053 42.027 0.043 3.776 11.2 7.68 22.347 11.243 33.611 0.512 1.589 1.077 3.2 2.272 4.405 5.195 2.272 10.624 4.021 15.712 6.539 1.739 0.747 3.712 2.048 5.632 1.099 11.467-5.557 22.752-11.52 34.261-16.971 10.251 9.429 19.733 19.691 29.749 29.376-4.971 11.125-10.752 21.888-16.192 32.789-0.523 1.397-2.027 2.891-1.099 4.427 2.891 6.347 5.845 12.693 7.797 19.403 12.672 4.128 25.269 8.469 37.931 12.587 0.032 14.315 0.235 28.629-0.096 42.933-11.296 3.061-22.208 7.403-33.408 10.773-1.835 0.64-4.309 1.056-4.843 3.253-2.283 6.432-5.131 12.64-7.712 18.923 5.76 11.829 11.84 23.531 17.632 35.349-9.131 9.707-18.848 18.848-28.107 28.437-1.077 1.483-3.221 1.077-4.597 0.299-10.037-5.216-20.256-10.101-30.347-15.243-1.813-1.024-4.064-0.619-5.824 0.288-4.245 1.995-8.576 3.787-12.992 5.365-1.867 0.821-4.235 1.472-4.896 3.648-3.968 11.701-7.829 23.456-11.829 35.125-1.643 1.355-3.829 0.907-5.781 0.992-11.755-0.075-23.509 0.032-35.253-0.043-0.384-0.213-1.152-0.64-1.536-0.853zM495.701 288.404c0.331 0.384 0.971 1.163 1.291 1.557 10.037 0.107 20.085-0.032 30.123 0.064 0.363-0.341 1.077-1.024 1.44-1.365 0.021-10.592 0-21.184 0-31.776-10.72-0.16-21.44 0.096-32.149-0.139-1.237 2.581-0.725 5.504-0.821 8.245 0.117 7.808-0.16 15.616 0.117 23.413zM561.781 288.478c0.331 0.373 0.992 1.12 1.323 1.493 131.285 0.053 262.571-0.011 393.856 0.032 0.309-0.384 0.939-1.141 1.248-1.525 0.149-10.539 0.053-21.077 0.032-31.616-132.171-0.021-264.331-0.075-396.501 0.021-0.011 10.539-0.128 21.067 0.043 31.595zM192.693 235.486c12.288 10.923 27.776 18.219 44.053 20.501 7.125 0.363 14.272 0.309 21.397 0.064 25.845-2.955 49.621-19.243 62.048-42.080 5.195-9.248 8.32-19.541 9.856-30.016 0.277-6.048 0.213-12.117 0.075-18.187-2.133-19.691-11.435-38.773-26.197-52.085-5.493-3.776-10.667-8.064-16.544-11.253-19.765-10.965-44.117-12.8-65.536-5.867-5.931 1.877-11.36 4.971-17.035 7.445-21.184 12.501-35.616 35.339-38.816 59.637-0.341 6.752-0.309 13.525-0.043 20.277 2.315 19.648 12.032 38.325 26.741 51.563zM233.205 221.502c-13.824-4.341-25.483-14.955-31.019-28.341-3.883-8.587-3.979-18.187-3.147-27.403 2.976-17.088 15.456-32.075 31.744-38.027 17.323-6.827 38.197-2.229 51.392 10.805 9.653 9.152 15.648 22.411 15.040 35.787 1.045 25.472-21.888 49.728-47.616 48.8-5.483-0.085-11.157 0.299-16.395-1.621zM495.659 221.204c0.245 0.693 0.725 2.080 0.971 2.784 43.232-0.213 86.475-0.064 129.717-0.085 0.363-0.331 1.099-1.013 1.472-1.344 0.011-10.592 0-21.184-0.011-31.776-43.797-0.192-87.595 0.107-131.392-0.149-1.205 2.592-0.768 5.483-0.832 8.224 0.085 7.456-0.107 14.901 0.075 22.347zM660.789 222.505c0.363 0.341 1.099 1.024 1.472 1.376 98.357 0.107 196.725-0.16 295.083 0.128 1.344-2.88 0.875-6.069 0.939-9.152-0.032-8.021 0-16.043-0.011-24.064-99.157-0.096-198.325-0.139-297.493 0.021 0.011 10.571-0.032 21.131 0.011 31.691zM495.659 155.070c0.235 0.704 0.725 2.101 0.96 2.805 100.768-0.235 201.547-0.032 302.315-0.096 52.821 0.075 105.632-0.16 158.443 0.117 1.301-2.891 0.853-6.091 0.907-9.173-0.021-8.011 0-16.011-0.011-24.021-153.941-0.203-307.893 0.107-461.835-0.16-1.237 2.571-0.779 5.451-0.853 8.192 0.085 7.445-0.096 14.891 0.075 22.336zM495.659 88.937c0.235 0.704 0.715 2.112 0.949 2.816 96.864-0.213 193.728-0.032 290.592-0.096 56.725 0.075 113.461-0.149 170.197 0.117 0.533-1.568 1.035-3.179 0.896-4.885-0.043-9.429-0.011-18.859-0.021-28.288-153.941-0.203-307.883 0.107-461.813-0.16-0.725 1.557-0.981 3.243-0.885 4.928 0.096 8.523-0.075 17.056 0.085 25.568zM495.648 22.814c0.235 0.704 0.715 2.112 0.949 2.816 131.435-0.192 262.88-0.085 394.315-0.053 0.32-0.373 0.96-1.141 1.28-1.515 0.021-10.517 0-21.035 0-31.552-131.765-0.128-263.541 0-395.317-0.064-0.32 0.373-0.96 1.109-1.28 1.483 0.032 9.632-0.075 19.264 0.053 28.885zM925.301 24.137c0.171 2.347 3.307 1.088 4.821 1.429 9.088 0 18.197-0.149 27.296 0.085 0.533-1.568 1.013-3.189 0.885-4.896-0.064-9.408-0.021-18.827-0.032-28.245-10.997-0.085-22.005-0.075-33.003 0-0.021 10.549-0.107 21.088 0.032 31.627z" />
<glyph unicode="&#xe91d;" glyph-name="back" d="M392.258 835.244h16.516c17.259-6.524 36.17-15.36 42.694-34.106 11.644-21.966-2.477-45.667-18.663-60.697-85.636-84.397-172.181-167.886-257.321-252.779 266.653-0.495 533.388 0.578 799.959-0.495 22.132 1.899 38.070-14.699 48.557-32.041v-33.61c-7.432-13.791-16.434-29.894-33.693-32.372-29.894-4.377-60.201-1.569-90.261-2.065-241.053 0-482.106 0.248-723.076-0.165 83.737-82.168 167.143-164.583 251.375-246.255 14.947-14.782 32.619-34.436 25.848-57.311-3.634-19.572-21.306-30.803-36.583-40.877h-25.187c-15.112 7.515-29.316 16.929-41.125 29.068-95.298 94.803-191.339 188.779-287.050 283.086-21.966 22.462-49.135 40.877-64.248 69.12v26.756c17.259 30.307 45.006 52.026 69.285 76.305 81.507 80.268 162.932 160.619 244.521 240.805 24.692 24.114 47.649 50.952 78.452 67.634z" />
<glyph unicode="&#xe91e;" glyph-name="cellular-phone" horiz-adv-x="412" d="M108.459 950.857h10.411c-7.296-1.931-15.072-2.56-21.675-6.485-6.784-3.221-11.904-8.789-17.376-13.739 6.037 10.688 17.973 15.499 28.64 20.224zM13.056 773.63c1.365 2.443 3.2 4.565 5.163 6.539-2.539-5.205-5.952-9.941-8.331-15.232-4.565-9.899-7.712-20.683-7.616-31.659-0.619-33.419-0.117-66.859-0.277-100.288 0-153.248 0-306.485 0-459.733 0.085-53.333-0.181-106.667 0.139-159.989-0.608-15.413 3.616-30.827 11.488-44.053 1.643-2.688 3.2-5.429 4.629-8.245-6.059 5.973-9.195 14.091-12.48 21.749-3.040 6.955-3.403 14.645-5.771 21.781v732.128c0.736 2.293 1.408 4.608 1.803 6.987 1.845 10.592 5.845 20.747 11.253 30.016zM368.011 756.884c3.051-2.293 4.224-6.069 5.728-9.408 3.701-8.48 3.627-17.941 3.573-27.019 0-232.885 0.011-465.781 0-698.667 0.053-9.429 0.256-19.264-3.605-28.085-1.461-3.349-2.624-7.125-5.696-9.397 2.101 4.501 4.448 8.928 5.845 13.717 3.040 9.408 1.728 19.403 2.005 29.099 0 234.315 0.011 468.629 0 702.933 0.245 9.557-3.669 18.464-7.851 26.827zM37.429 746.057c1.003 2.72 1.867 5.739 4.288 7.573-3.040-7.531-6.197-15.285-5.845-23.573-0.021-239.637-0.021-479.285 0-718.923-0.363-8.299 2.933-16.021 5.824-23.605-2.443 1.867-3.179 4.992-4.277 7.701-2.411 6.048-2.933 12.651-3.008 19.104 0.011 237.504 0 475.019 0 712.523 0.053 6.496 0.779 13.067 3.019 19.2zM410.144 733.716c0.395-0.544 1.195-1.643 1.589-2.187v-727.872c-2.016-5.195-2.272-10.88-4.213-16.117-3.264-9.44-6.976-19.232-14.027-26.549 2.080 4.256 4.715 8.213 6.944 12.395 5.611 10.987 9.067 23.221 9.035 35.605 0.587 24.885 0.117 49.781 0.267 74.667 0 211.2 0 422.4 0 633.6-0.021 5.493-0.192 10.987 0.405 16.459zM102.805 641.513c-0.299 1.803 1.173 3.659 3.040 3.605 66.677 0 133.365 0 200.043 0 1.867 0.064 3.328-1.792 3.040-3.605 0.032-55.115-0.021-110.251 0.032-165.365-0.032-1.173-0.139-2.347-0.331-3.509-1.163-0.213-2.336-0.341-3.509-0.363-63.659 0.053-127.317 0.011-190.976 0.021-3.68 0.053-7.403-0.32-11.040 0.341-0.203 1.163-0.309 2.336-0.331 3.509 0.053 55.125 0.011 110.24 0.032 165.365zM104.213 642.078c-0.288-26.485-0.032-52.992-0.117-79.488 0.117-29.632-0.235-59.275 0.171-88.896 17.483-0.533 35.019-0.064 52.533-0.224 36.981 0 73.952 0 110.933 0 13.248 0.16 26.517-0.32 39.733 0.224 0.405 23.925 0.053 47.883 0.171 71.829-0.075 32.181 0.171 64.373-0.117 96.555-7.541 0.725-15.147 0.096-22.72 0.299-59.019 0.011-118.037-0.021-177.056 0.021-0.885-0.085-2.645-0.235-3.531-0.32zM159.339 604.852c4.021 4.16 10.027 5.547 15.605 5.984 19.925-0.011 39.851-0.064 59.776 0.021 6.965-0.149 16.011-1.643 19.179-8.747-3.659 3.093-7.637 6.645-12.757 6.453-23.157 0.139-46.325 0.032-69.483 0.053-6.368 0.32-12.459-3.872-14.891-9.664-1.131-3.456-1.131-7.157-1.248-10.763 0-19.915 0.011-39.819 0-59.733 0.117-5.259 0.096-11.275 4.181-15.211 3.989-4.672 10.485-5.664 16.299-5.515 20.992 0.139 41.995-0.032 62.987 0.075 5.76-0.128 10.827 2.933 14.923 6.72-1.899-4.629-7.179-7.093-11.829-7.915-23.115-0.213-46.229 0-69.344-0.107-9.995-0.651-19.381 8.683-18.741 18.709 0.043 22.432 0 44.875 0.021 67.307-0.053 4.619 2.123 9.077 5.323 12.331zM185.856 165.929c10.88 1.024 21.877 0.128 32.8 0.469 6.859 0.395 14.624-1.44 18.581-7.552 3.488-4.053 3.797-9.653 2.869-14.688-2.443-7.605-10.048-13.643-18.197-13.184-10.699 0.032-21.397 0.032-32.085 0-9.557-0.523-18.997 7.979-18.496 17.749-0.405 8.331 6.357 16.043 14.528 17.205zM181.696 163.422c-5.237-2.432-8.811-7.883-9.28-13.589-0.683-8.427 6.464-17.461 15.339-16.715 12.437 0.021 24.864-0.053 37.301 0.043 6.261-0.171 11.744 4.928 13.376 10.752 3.328 8.821-3.499 20.64-13.365 20.405-12.085 0.064-24.171-0.032-36.256 0.043-2.379-0.096-4.928 0.171-7.115-0.939zM82.048 97.481c9.035 2.592 18.56 0.811 27.819 1.333 8.555 0.405 18.891-0.171 24.523-7.637 4.619-5.536 5.952-15.243 0.107-20.395 1.248 4.384 3.211 9.013 1.749 13.589-1.397 6.699-7.648 12.16-14.56 12.192-10.336 0.224-20.672-0.064-31.008 0.096-4.843 0.043-10.197 0.149-14.123-3.136-7.765-5.472-8.715-18.155-1.643-24.576 5.152-5.387 13.195-4.885 20.021-4.885 9.184 0.288 18.411-0.512 27.552 0.459 4.725 0.341 8.523 3.36 12.011 6.261-2.624-5.419-9.131-8.363-14.976-8.064-10.709 0.032-21.408 0.032-32.107 0-9.653-0.597-18.869 8.064-18.613 17.803-0.235 7.808 5.781 15.072 13.248 16.96zM176.939 93.385c7.275 6.549 17.749 5.44 26.795 5.429 9.365-0.363 19.435 1.547 28.053-3.189 8.235-4.523 11.179-16.021 6.325-24.021-3.392-5.387-9.707-9.237-16.181-8.885-11.072 0.053-22.133 0-33.195 0.021-3.531-0.096-7.221 1.024-9.6 3.733 9.6-3.584 19.936-2.112 29.931-2.389 6.208 0.128 12.544-0.555 18.645 0.96 8.437 2.144 13.803 12.139 10.795 20.341-1.941 6.176-7.797 11.179-14.421 11.179-10.336 0.224-20.683-0.064-31.019 0.107-4.085-0.075-8.512 0.288-12.171-1.899-6.347-3.413-9.973-11.403-7.947-18.389 1.013-3.851 3.765-6.859 6.187-9.909-9.856 4.864-10.261 20.139-2.197 26.912zM291.787 98.59c8.672 0.587 17.397 0.011 26.091 0.245 7.157 0.245 15.317-0.917 20.352-6.539 3.189-3.403 5.109-8.053 4.672-12.757-0.309-9.365-9.28-17.387-18.581-16.821-11.072 0.043-22.133 0.011-33.205 0.021-11.648-0.043-21.632 13.515-16.245 24.405 2.795 6.869 9.824 10.656 16.917 11.445zM286.208 96.052c-8.576-2.549-13.611-12.875-10.208-21.173 2.112-6.869 9.301-10.827 16.224-10.709 11.040-0.075 22.101-0.277 33.141 0.107 6.315 0.16 12.48 3.787 14.976 9.707 4.107 9.003-1.792 21.024-11.797 22.4-8.523 0.565-17.077 0.096-25.611 0.235-5.568-0.181-11.221 0.533-16.725-0.565zM43.509-61.484c6.251-2.133 12.011-5.568 18.432-7.253 4.971-1.6 10.443-1.6 14.997-4.405h-5.717c-9.387 3.435-19.648 5.408-27.712 11.659zM348.832-68.983c6.763 1.675 12.843 5.205 19.392 7.488-7.712-6.315-17.771-7.68-26.624-11.648h-7.509c4.437 2.827 9.867 2.571 14.741 4.16zM118.869 950.857h11.851c4.469-2.859 9.877-3.616 14.421-6.347 15.008-8.213 25.696-24.363 26.283-41.589 0.256-29.568-0.203-59.157 0.224-88.704 48.011-0.427 96.064-0.064 144.096-0.181 8.459-0.149 17.013 0.448 25.365-1.248 23.253-4.384 44.576-18.784 56.715-39.179 7.211-12 12.16-25.803 12.32-39.893-0.597-5.472-0.427-10.965-0.405-16.459 0-211.2 0-422.4 0-633.6-0.149-24.885 0.32-49.781-0.267-74.667 0.032-12.384-3.424-24.619-9.035-35.605-2.229-4.181-4.864-8.139-6.944-12.395-6.805-9.12-15.52-16.661-25.269-22.485-6.549-2.283-12.629-5.813-19.392-7.488-4.875-1.589-10.304-1.333-14.741-4.16h-257.152c-4.555 2.805-10.027 2.805-14.997 4.405-6.421 1.685-12.181 5.12-18.432 7.253-9.717 5.835-18.507 13.333-25.259 22.453-1.429 2.816-2.987 5.557-4.629 8.245-7.872 13.227-12.096 28.64-11.488 44.053-0.32 53.323-0.053 106.656-0.139 159.989 0 153.248 0 306.485 0 459.733 0.16 33.429-0.341 66.869 0.277 100.288-0.096 10.976 3.051 21.76 7.616 31.659 2.379 5.291 5.792 10.027 8.331 15.232 10.635 13.973 25.515 24.672 42.261 30.016 3.019 0.917 6.187 1.461 9.003 2.944 0.171 1.099 0.245 2.197 0.235 3.307-0.043 28.448-0.032 56.885 0 85.333-0.416 10.475 4.043 20.544 10.101 28.864 5.472 4.949 10.592 10.517 17.376 13.739 6.603 3.925 14.379 4.555 21.675 6.485zM104.149 905.012c-0.576-4.245-0.256-8.544-0.341-12.811 0.085-25.781-0.16-51.563 0.117-77.323 11.093-0.128 22.187-0.096 33.28-0.021 0.288 28.619 0.096 57.248 0.096 85.867 0.256 4.971-2.72 9.451-6.496 12.416-3.979 3.584-9.579 3.712-14.613 3.072-5.515-1.579-9.877-5.963-12.043-11.2zM41.717 753.63c-2.421-1.835-3.285-4.853-4.288-7.573-2.24-6.133-2.965-12.704-3.019-19.2 0-237.504 0.011-475.019 0-712.523 0.075-6.453 0.597-13.056 3.008-19.104 1.099-2.709 1.835-5.835 4.277-7.701 7.445-14.229 22.368-24.139 38.251-26.091 7.477-0.363 14.965-0.139 22.453-0.203 73.952 0 147.915 0 221.867 0 17.237-0.821 34.72 8.352 43.744 23.072 3.072 2.272 4.235 6.048 5.696 9.397 3.861 8.821 3.659 18.656 3.605 28.085 0.011 232.885 0 465.781 0 698.667 0.053 9.077 0.128 18.539-3.573 27.019-1.504 3.339-2.677 7.115-5.728 9.408-8.992 14.197-25.717 23.723-42.677 22.976-38.4 0.043-76.8 0.011-115.2 0.021-41.248 0.096-82.485-0.384-123.733-0.192-18.293 1.173-36.096-10.219-44.683-26.059zM129.664 744.158c3.051 1.792 6.677 1.504 10.069 1.579 45.152-0.053 90.304 0.043 135.456-0.043 5.504 0.352 10.357-3.221 13.312-7.584 2.816-3.872 2.581-8.939 2.080-13.461-1.867-7.104-8.885-13.12-16.459-12.352-45.504-0.011-91.008-0.011-136.512 0-8.939-0.853-17.483 7.776-16.757 16.693-0.619 6.347 3.509 12.128 8.811 15.168zM78.496 675.881c2.656 1.771 5.941 1.44 8.981 1.547 79.637-0.032 159.275 0.043 238.901-0.032 8.683 0.48 16.491-8.16 15.648-16.683 0.021-66.485 0-132.971 0.011-199.456-0.021-3.211 0.096-6.432-0.203-9.643-1.76-7.253-8.917-13.045-16.501-12.491-79.648-0.021-159.285-0.021-238.923 0-9.003-0.725-17.621 7.797-16.704 16.811 0 68.619-0.043 137.237 0.011 205.867-0.555 6.027 3.979 11.093 8.779 14.080zM102.805 641.513c-0.021-55.125 0.021-110.24-0.032-165.365 0.021-1.173 0.128-2.347 0.331-3.509 3.637-0.661 7.36-0.288 11.040-0.341 63.659-0.011 127.317 0.032 190.976-0.021 1.173 0.021 2.347 0.149 3.509 0.363 0.192 1.163 0.299 2.336 0.331 3.509-0.053 55.115 0 110.251-0.032 165.365 0.288 1.813-1.173 3.669-3.040 3.605-66.677 0-133.365 0-200.043 0-1.867 0.053-3.339-1.803-3.040-3.605zM156.768 598.953c2.432 5.792 8.523 9.984 14.891 9.664 23.157-0.021 46.325 0.085 69.483-0.053 5.12 0.192 9.099-3.36 12.757-6.453 3.435-3.733 2.965-9.28 2.539-13.963-1.792-7.413-8.917-12.512-16.373-12.992-16.907-0.405-33.845 0.128-50.763-0.256-0.608-1.163-0.907-2.389-0.885-3.701 0.011-8.587 0-17.163 0.011-25.739 0.075-1.749 0.437-4.117 2.507-4.48 18.037-0.363 36.107 0.341 54.133-0.352 5.205-2.059 10.091-6.475 11.381-12.107 0.416-4.693 0.864-10.219-2.539-13.995-4.096-3.787-9.163-6.848-14.923-6.72-20.992-0.107-41.995 0.064-62.987-0.075-5.813-0.149-12.309 0.843-16.299 5.515-4.085 3.936-4.064 9.952-4.181 15.211 0.011 19.915 0 39.819 0 59.733 0.117 3.605 0.117 7.307 1.248 10.763zM69.632 388.713c-0.736 8.299 6.795 15.179 14.549 16.299 24.235 0.021 48.469 0.011 72.704 0 6.773-0.992 12.981-6.304 14.528-13.035 0.256-11.744-0.043-23.499 0.075-35.253-0.139-3.424 0.437-7.125-1.355-10.24-2.72-5.76-8.907-10.347-15.467-9.675-8.96-0.853-17.621 7.723-16.736 16.693-0.053 4.992 0.107 9.984-0.021 14.965-0.011 1.803-1.877 2.709-3.456 2.464-8.565 0.011-17.12-0.043-25.685 0.021-1.611-0.107-3.435 0.341-4.843-0.661-0.832-9.355 2.197-20.661-5.056-28.16-6.496-7.851-20.085-7.115-26.037 1.003-1.653 2.453-3.328 5.152-3.083 8.224-0.139 12.448 0.032 24.907-0.117 37.355zM240.32 391.977c1.707 7.392 9.035 13.365 16.736 13.088 23.499-0.107 47.008 0.011 70.507-0.053 7.723-1.141 15.307-7.989 14.539-16.299-0.117-12.085-0.021-24.181-0.085-36.277 0.277-7.552-6.133-14.443-13.44-15.541-3.691 0.032-7.829-0.768-11.029 1.515-4.085 2.453-7.787 6.24-8.725 11.061-1.76 6.816-0.459 13.899-1.013 20.832-1.419 0.992-3.243 0.544-4.843 0.651-8.565-0.064-17.12-0.011-25.685-0.011-1.557 0.213-3.499-0.672-3.445-2.485-0.203-6.325 0.203-12.661-0.203-18.987-1.536-6.229-6.837-11.68-13.323-12.576-3.669-0.032-7.712-0.683-10.923 1.504-5.536 2.805-9.653 8.789-9.131 15.125 0.075 12.821-0.171 25.643 0.064 38.453zM78.539 300.425c3.36 1.941 7.339 1.557 11.061 1.621 10.667-0.053 21.333 0.053 32-0.053 7.253 0.235 13.547-5.685 15.435-12.405 0.501-4.299 0.704-9.003-1.749-12.8-2.923-4.608-7.957-8.651-13.685-8.192-12.085-0.043-24.181-0.043-36.277 0-6.965-0.416-12.949 5.067-15.253 11.328-0.544 3.531-0.48 7.157-0.043 10.688 1.707 4.064 4.704 7.595 8.512 9.813zM180.928 300.436c3.051 1.749 6.613 1.589 10.005 1.611 10.656-0.032 21.323 0.011 31.989-0.021 8.949 0.725 17.547-7.84 16.789-16.779 0.587-7.531-5.344-14.656-12.448-16.469-13.173-0.448-26.357-0.117-39.541-0.181-7.307-0.427-13.547 5.685-15.477 12.384-0.213 4.021-0.917 8.523 1.419 12.085 1.771 2.987 4.309 5.547 7.264 7.371zM283.285 300.404c3.381 1.952 7.371 1.589 11.115 1.643 10.667-0.053 21.333 0.053 32-0.053 6.005 0.288 11.232-3.947 14.080-8.928 2.315-3.584 1.44-8.096 1.355-12.128-1.728-6.763-8.192-12.725-15.424-12.341-12.096-0.043-24.192-0.043-36.277 0-5.728-0.459-10.795 3.563-13.707 8.181-4.661 8.043-1.515 19.371 6.859 23.627zM78.539 232.18c3.029 1.76 6.624 1.493 9.995 1.557 11.019-0.043 22.037 0.043 33.056-0.043 7.275 0.32 13.557-5.664 15.445-12.373 0.448-4.053 0.725-8.459-1.387-12.139-2.741-5.035-8.085-9.237-14.059-8.853-12.085-0.064-24.171-0.064-36.256 0-6.944-0.395-12.747 5.269-15.296 11.296-0.309 4.597-1.237 9.835 1.611 13.845 1.728 2.731 4.128 5.024 6.891 6.709zM180.928 232.19c3.040 1.749 6.635 1.483 10.005 1.547 11.019-0.053 22.037 0.053 33.056-0.053 6.016 0.373 11.264-3.893 14.069-8.896 2.261-3.616 1.696-8.085 1.419-12.139-1.696-5.707-6.357-10.763-12.235-12.107-8.533-0.544-17.099-0.117-25.643-0.256-6.037 0.149-12.128-0.341-18.133 0.405-5.248 2.069-9.717 6.443-11.221 11.957-0.224 4.043-0.896 8.555 1.419 12.139 1.739 3.029 4.309 5.557 7.264 7.403zM283.339 232.19c3.019 1.781 6.624 1.472 9.995 1.547 11.019-0.053 22.037 0.043 33.056-0.053 7.019 0.395 12.736-5.28 15.307-11.339 0.459-3.531 0.469-7.168-0.011-10.709-2.176-5.099-6.453-9.835-12-11.083-8.192-0.555-16.416-0.128-24.619-0.267-6.4 0.16-12.843-0.363-19.2 0.405-4.661 1.781-8.725 5.376-10.517 10.080-3.008 7.925 0.373 17.483 7.989 21.419zM83.616 165.31c12.661 0.213 25.344 0.085 38.016 0.075 7.285 0.459 13.547-5.632 15.403-12.331 0.384-3.776 0.747-7.872-1.035-11.381-2.283-5.259-7.552-9.312-13.344-9.675-6.315-1.344-12.8-0.48-19.189-0.715-8.309 0.213-17.003-0.981-24.896 2.24-2.752 1.707-5.184 3.989-6.923 6.72-2.859 4.011-1.909 9.248-1.632 13.845 2.389 5.472 7.285 10.901 13.6 11.221zM286.315 165.108c7.648 0.64 15.349 0.16 23.019 0.309 6.859-0.139 13.728 0.309 20.565-0.277 5.611-1.195 9.621-5.984 11.787-11.061 0.469-3.531 0.491-7.168-0.011-10.709-1.376-3.413-3.744-6.379-6.699-8.587-3.264-2.731-7.755-2.731-11.733-3.456-8.907-0.128-17.803 0.021-26.709-0.064-3.733-0.139-7.392 0.715-11.040 1.365-4.523 1.685-8.352 5.376-10.133 9.867-3.563 8.939 1.6 20.043 10.955 22.613zM181.696 163.422c2.187 1.109 4.736 0.843 7.115 0.939 12.085-0.075 24.171 0.021 36.256-0.043 9.867 0.235 16.693-11.584 13.365-20.405-1.632-5.824-7.115-10.923-13.376-10.752-12.437-0.096-24.864-0.021-37.301-0.043-8.875-0.747-16.021 8.288-15.339 16.715 0.469 5.707 4.043 11.157 9.28 13.589zM76.555 93.524c3.925 3.285 9.28 3.179 14.123 3.136 10.336-0.16 20.672 0.128 31.008-0.096 6.912-0.032 13.163-5.493 14.56-12.192 1.461-4.576-0.501-9.205-1.749-13.589-3.488-2.901-7.285-5.92-12.011-6.261-9.141-0.971-18.368-0.171-27.552-0.459-6.827 0-14.869-0.501-20.021 4.885-7.072 6.421-6.123 19.104 1.643 24.576zM180.896 94.772c3.659 2.187 8.085 1.824 12.171 1.899 10.336-0.171 20.683 0.117 31.019-0.107 6.624 0 12.48-5.003 14.421-11.179 3.008-8.203-2.357-18.197-10.795-20.341-6.101-1.515-12.437-0.832-18.645-0.96-9.995 0.277-20.331-1.195-29.931 2.389-2.421 3.051-5.173 6.059-6.187 9.909-2.027 6.987 1.6 14.976 7.947 18.389zM286.208 96.052c5.504 1.099 11.157 0.384 16.725 0.565 8.533-0.139 17.088 0.331 25.611-0.235 10.005-1.376 15.904-13.397 11.797-22.4-2.496-5.92-8.661-9.547-14.976-9.707-11.040-0.384-22.101-0.181-33.141-0.107-6.923-0.117-14.112 3.84-16.224 10.709-3.403 8.299 1.632 18.624 10.208 21.173zM182.688 28.116c1.515 0.896 3.349 0.693 5.035 0.779 11.733 0.032 23.477 0.011 35.211 0.021 7.616 0.725 14.539-5.301 16.555-12.384 0.224-4.032 0.896-8.544-1.451-12.128-2.88-4.928-8.064-9.184-14.027-8.981-11.733-0.085-23.467-0.021-35.211-0.032-8.885-0.608-17.525 7.872-16.789 16.8-0.629 6.987 4.32 13.472 10.677 15.925z" />
<glyph unicode="&#xe91f;" glyph-name="minus" d="M482.941 950.857h53.414c112.225-6.919 223.066-48.709 308.030-123.157 105.998-88.562 170.205-222.374 179.615-359.645v-54.383c-7.057-119.005-55.075-235.658-136.718-322.837-91.468-99.356-223.343-159.274-358.262-163.978h-41.929c-128.692 7.196-254.339 63.516-343.594 156.921-86.625 88.977-137.963 210.612-143.498 334.737v39.299c5.535 144.052 74.309 284.368 186.119 375.421 82.889 70.296 189.163 109.319 296.822 117.622zM474.915 833.927c-202.448-15.222-371.546-205.769-359.092-409.046 2.214-197.466 173.25-372.376 370.024-381.924 180.861-14.806 359.645 111.256 407.386 286.166 41.514 138.794-2.076 297.652-107.658 396.454-81.643 78.461-197.881 119.421-310.659 108.35zM250.603 504.448c165.362 8.303 331.97 1.384 497.885 3.459 75.001 8.303 74.863-131.875 0.277-124.264-157.89-0.277-315.779-0.277-473.669 0-63.931-6.642-74.863 97.834-24.493 120.804z" />
<glyph unicode="&#xe920;" glyph-name="plus" d="M486.4 950.857h47.187c113.332-6.089 225.142-48.294 310.936-123.157 106.413-89.254 171.036-224.035 179.477-362.275v-48.848c-6.642-260.013-236.489-487.23-496.778-489.721h-37.085c-129.799 6.089-256.692 62.824-346.638 156.921-86.902 89.392-138.378 211.442-143.498 335.983v35.702c4.705 141.423 70.435 279.801 178.646 371.408 84.826 74.586 195.39 116.653 307.754 123.987zM475.606 833.927c-142.53-12.454-273.436-107.935-328.51-239.948-52.584-120.251-38.884-266.378 35.148-374.729 80.398-123.434 233.583-194.006 379.71-173.942 172.696 19.65 320.623 165.085 342.763 337.643 19.926 131.321-32.796 270.115-133.95 355.909-80.259 69.881-189.302 105.168-295.161 95.066zM443.779 689.46c-8.164 75.278 134.781 74.724 125.924-0.692 0.692-59.364-0.277-118.59 0-177.955 63.931-0.969 128 1.937 191.792-1.107 63.377-8.718 56.458-131.736-11.762-125.786-60.056-1.384-119.974 0.138-180.030-0.415-0.83-60.056 1.937-120.251-0.969-180.307-8.303-64.208-134.504-55.905-125.094 13.838-0.692 55.49 0.415 110.979 0 166.469-56.32 0.554-112.64-0.969-168.96 0.415-74.032-6.504-74.309 133.397-0.138 126.616 56.32 1.107 112.778-0.138 169.098 0.277 0.415 59.503-0.692 119.144 0.138 178.646z" />
<glyph unicode="&#xe921;" glyph-name="down" d="M253.152 822.009h3.052c82.666-88.362 170.757-171.571 255.051-258.441 74.189 71.951 146.14 146.208 219.719 218.838 12.953 12.546 25.159 25.77 36.688 39.604h3.187c84.090-84.565 167.909-169.469 253.152-252.881v-0.339c-157.059-158.618-315.473-315.948-473.007-474.092-12.478-12.749-26.312-24.345-36.688-38.993h-4.205c-9.223 11.528-19.531 22.040-30.245 32.144-146.886 147.090-293.841 294.112-440.727 441.202-12.614 12.614-24.481 26.176-39.129 36.552v4.069c85.718 82.666 168.994 168.045 253.152 252.338z" />
</font>
</defs>
</svg>
